<svg width="126" height="42" viewBox="0 0 126 42" fill="none" xmlns="http://www.w3.org/2000/svg">
<g clip-path="url(#clip0_86_12145)">
<path d="M115.965 0H10.0349C9.65586 0 9.27678 0 8.88718 0C8.56075 0 8.24486 0 7.91844 0.0105C7.21294 0.0105 6.50744 0.084 5.81247 0.1995C5.1175 0.315 4.44359 0.5355 3.8118 0.861C3.18001 1.1865 2.6114 1.596 2.10597 2.1C1.60053 2.5935 1.17934 3.171 0.863446 3.801C0.547551 4.431 0.326425 5.103 0.210597 5.796C0.0842387 6.489 0.0210597 7.1925 0.0210597 7.896C0.0210597 8.2215 0.0105298 8.5365 0 8.862V33.1275C0 33.453 0 33.768 0.0210597 34.0935C0.0210597 34.797 0.0947685 35.5005 0.210597 36.1935C0.326425 36.8865 0.547551 37.569 0.873976 38.1885C1.18987 38.8185 1.61106 39.3855 2.1165 39.879C2.6114 40.383 3.19054 40.7925 3.82233 41.118C4.45412 41.433 5.12803 41.664 5.823 41.7795C6.51797 41.895 7.22347 41.958 7.92897 41.9685C8.25539 41.9685 8.57128 41.979 8.89771 41.979C9.28731 41.979 9.66639 41.979 10.0455 41.979H115.976C116.355 41.979 116.734 41.979 117.113 41.979C117.429 41.979 117.766 41.979 118.082 41.9685C118.787 41.9685 119.493 41.895 120.188 41.7795C120.882 41.664 121.567 41.433 122.199 41.118C122.831 40.803 123.399 40.383 123.905 39.879C124.41 39.3855 124.821 38.808 125.147 38.1885C125.463 37.5585 125.684 36.8865 125.8 36.1935C125.916 35.5005 125.979 34.797 126 34.0935C126 33.768 126 33.453 126 33.1275C126 32.7495 126 32.3715 126 31.983V10.017C126 9.6285 126 9.2505 126 8.8725C126 8.547 126 8.232 126 7.9065C125.989 7.203 125.926 6.4995 125.8 5.8065C125.684 5.1135 125.463 4.4415 125.147 3.8115C124.494 2.5515 123.462 1.5225 122.199 0.8715C121.567 0.5565 120.893 0.336 120.188 0.21C119.493 0.0945 118.787 0.0315 118.082 0.021C117.766 0.021 117.429 0.0105 117.113 0.0105C116.734 0.0105 116.355 0.0105 115.976 0.0105L115.965 0Z" fill="#A6A6A6"/>
<path d="M8.8871 41.0865C8.5712 41.0865 8.25531 41.0865 7.93942 41.076C7.27604 41.076 6.62319 41.013 5.97034 40.908C5.35961 40.803 4.78047 40.614 4.22238 40.3305C3.67483 40.0575 3.17993 39.69 2.74821 39.2595C2.31648 38.829 1.94794 38.3355 1.67416 37.7895C1.40039 37.2435 1.20032 36.6555 1.10555 36.0465C1.00025 35.3955 0.937075 34.734 0.926545 34.0725C0.926545 33.852 0.916016 33.117 0.916016 33.117V8.86195C0.916016 8.86195 0.916016 8.13745 0.926545 7.92745C0.926545 7.26595 0.989724 6.61495 1.10555 5.96395C1.21085 5.35495 1.40039 4.76695 1.67416 4.22095C1.94794 3.67495 2.30595 3.18145 2.74821 2.75095C3.17993 2.32045 3.67483 1.95295 4.22238 1.67995C4.76994 1.40695 5.35961 1.20745 5.95981 1.11295C6.61266 1.00795 7.27604 0.944948 7.93942 0.944948H8.8871L117.102 0.934448H118.06C118.713 0.955448 119.366 1.00795 120.019 1.12345C120.63 1.22845 121.219 1.41745 121.777 1.70095C122.873 2.25745 123.757 3.14995 124.326 4.24195C124.599 4.78795 124.789 5.37595 124.894 5.97445C125 6.62545 125.063 7.28695 125.073 7.95895C125.073 8.25295 125.073 8.57845 125.073 8.89345C125.073 9.29245 125.073 9.65995 125.073 10.0379V32.0145C125.073 32.3925 125.073 32.7705 125.073 33.1485C125.073 33.495 125.073 33.7995 125.073 34.125C125.063 34.776 125 35.4269 124.894 36.0674C124.8 36.6764 124.599 37.2645 124.326 37.821C124.052 38.3565 123.683 38.85 123.252 39.2805C122.82 39.711 122.325 40.0785 121.777 40.3515C121.219 40.635 120.63 40.824 120.019 40.929C119.366 41.034 118.713 41.097 118.05 41.097C117.745 41.097 117.418 41.1075 117.102 41.1075H115.965H8.8871V41.0865Z" fill="black"/>
<g clip-path="url(#clip1_86_12145)">
<rect x="9" y="9" width="23" height="23" rx="11.5" fill="white"/>
<path d="M20.5 9.71875C14.1501 9.71875 9 14.6681 9 20.7726C9 25.6565 12.2947 29.7998 16.865 31.2617C17.4391 31.3639 17.625 31.0213 17.625 30.7302V28.6723C14.4261 29.3411 13.76 27.368 13.76 27.368C13.2368 26.0904 12.4826 25.7504 12.4826 25.7504C11.439 25.0642 12.5621 25.0789 12.5621 25.0789C13.7169 25.1563 14.3245 26.2184 14.3245 26.2184C15.3499 27.9078 17.0145 27.4196 17.671 27.1368C17.7735 26.4229 18.0716 25.9347 18.4013 25.6593C15.8473 25.3783 13.162 24.4304 13.162 20.1959C13.162 18.9883 13.6115 18.0027 14.3465 17.2289C14.2277 16.9498 13.8338 15.8251 14.4587 14.3033C14.4587 14.3033 15.4247 14.0067 17.6221 15.4363C18.5392 15.1913 19.5225 15.0688 20.5 15.0642C21.4775 15.0688 22.4617 15.1913 23.3807 15.4363C25.5763 14.0067 26.5404 14.3033 26.5404 14.3033C27.1662 15.826 26.7723 16.9507 26.6535 17.2289C27.3914 18.0027 27.837 18.9892 27.837 20.1959C27.837 24.4415 25.147 25.3765 22.5863 25.65C22.9984 25.9927 23.375 26.6652 23.375 27.6968V30.7302C23.375 31.024 23.559 31.3695 24.1426 31.2608C28.7091 29.7971 32 25.6547 32 20.7726C32 14.6681 26.8509 9.71875 20.5 9.71875Z" fill="#24292E"/>
</g>
<path d="M41.2912 32V18.9091H46.2003C47.206 18.9091 48.0497 19.0966 48.7315 19.4716C49.4176 19.8466 49.9354 20.3622 50.2848 21.0185C50.6385 21.6705 50.8153 22.4119 50.8153 23.2429C50.8153 24.0824 50.6385 24.8281 50.2848 25.4801C49.9311 26.1321 49.4091 26.6456 48.7188 27.0206C48.0284 27.3913 47.1783 27.5767 46.1683 27.5767H42.9148V25.6271H45.8487C46.4368 25.6271 46.9183 25.5249 47.2933 25.3203C47.6683 25.1158 47.9453 24.8345 48.1243 24.4766C48.3075 24.1186 48.3991 23.7074 48.3991 23.2429C48.3991 22.7784 48.3075 22.3693 48.1243 22.0156C47.9453 21.6619 47.6662 21.3871 47.2869 21.1911C46.9119 20.9908 46.4283 20.8906 45.8359 20.8906H43.6626V32H41.2912ZM52.7729 32V22.1818H55.0165V23.8182H55.1188C55.2978 23.2514 55.6046 22.8146 56.0392 22.5078C56.4782 22.1967 56.9789 22.0412 57.5414 22.0412C57.6692 22.0412 57.812 22.0476 57.9696 22.0604C58.1316 22.0689 58.2658 22.0838 58.3723 22.1051V24.2337C58.2743 24.1996 58.1188 24.1697 57.9057 24.1442C57.6969 24.1143 57.4945 24.0994 57.2985 24.0994C56.8766 24.0994 56.4973 24.1911 56.1607 24.3743C55.8283 24.5533 55.5662 24.8026 55.3745 25.1222C55.1827 25.4418 55.0868 25.8104 55.0868 26.228V32H52.7729ZM63.788 32.1918C62.8292 32.1918 61.9982 31.9808 61.2951 31.5589C60.592 31.1371 60.0465 30.5469 59.6587 29.7884C59.2752 29.0298 59.0835 28.1435 59.0835 27.1293C59.0835 26.1151 59.2752 25.2266 59.6587 24.4638C60.0465 23.701 60.592 23.1087 61.2951 22.6868C61.9982 22.2649 62.8292 22.054 63.788 22.054C64.7468 22.054 65.5778 22.2649 66.2809 22.6868C66.984 23.1087 67.5273 23.701 67.9109 24.4638C68.2987 25.2266 68.4925 26.1151 68.4925 27.1293C68.4925 28.1435 68.2987 29.0298 67.9109 29.7884C67.5273 30.5469 66.984 31.1371 66.2809 31.5589C65.5778 31.9808 64.7468 32.1918 63.788 32.1918ZM63.8008 30.3381C64.3207 30.3381 64.7553 30.1953 65.1048 29.9098C65.4542 29.62 65.7141 29.2322 65.8846 28.7464C66.0593 28.2607 66.1467 27.7195 66.1467 27.1229C66.1467 26.522 66.0593 25.9787 65.8846 25.4929C65.7141 25.0028 65.4542 24.6129 65.1048 24.3232C64.7553 24.0334 64.3207 23.8885 63.8008 23.8885C63.2681 23.8885 62.8249 24.0334 62.4712 24.3232C62.1218 24.6129 61.8597 25.0028 61.685 25.4929C61.5146 25.9787 61.4293 26.522 61.4293 27.1229C61.4293 27.7195 61.5146 28.2607 61.685 28.7464C61.8597 29.2322 62.1218 29.62 62.4712 29.9098C62.8249 30.1953 63.2681 30.3381 63.8008 30.3381ZM70.4565 22.1818H72.7704V32.5625C72.7704 33.2699 72.6362 33.8537 72.3677 34.3139C72.0993 34.7741 71.7115 35.1172 71.2044 35.343C70.6973 35.5689 70.0815 35.6818 69.3571 35.6818C69.2718 35.6818 69.193 35.6797 69.1206 35.6754C69.0481 35.6754 68.9693 35.6733 68.8841 35.669V33.7834C68.948 33.7876 69.0055 33.7898 69.0566 33.7898C69.1078 33.794 69.161 33.7962 69.2164 33.7962C69.6596 33.7962 69.9771 33.6875 70.1689 33.4702C70.3606 33.2571 70.4565 32.9439 70.4565 32.5305V22.1818ZM71.6071 20.7884C71.2363 20.7884 70.9189 20.6669 70.6547 20.424C70.3947 20.1768 70.2647 19.8807 70.2647 19.5355C70.2647 19.1861 70.3947 18.8899 70.6547 18.647C70.9189 18.3999 71.2363 18.2763 71.6071 18.2763C71.9735 18.2763 72.2868 18.3999 72.5467 18.647C72.8109 18.8899 72.943 19.1861 72.943 19.5355C72.943 19.8807 72.8109 20.1768 72.5467 20.424C72.2868 20.6669 71.9735 20.7884 71.6071 20.7884ZM79.4964 32.1918C78.5121 32.1918 77.6619 31.9872 76.946 31.5781C76.2344 31.1648 75.6868 30.581 75.3033 29.8267C74.9197 29.0682 74.728 28.1754 74.728 27.1484C74.728 26.1385 74.9197 25.2521 75.3033 24.4893C75.6911 23.7223 76.2322 23.1257 76.9268 22.6996C77.6214 22.2692 78.4375 22.054 79.375 22.054C79.9801 22.054 80.5511 22.152 81.0881 22.348C81.6293 22.5398 82.1065 22.8381 82.5199 23.2429C82.9375 23.6477 83.2656 24.1634 83.5043 24.7898C83.7429 25.4119 83.8622 26.1534 83.8622 27.0142V27.7237H75.8146V26.1641H81.6442C81.6399 25.7209 81.544 25.3267 81.3565 24.9815C81.169 24.6321 80.907 24.3572 80.5703 24.157C80.2379 23.9567 79.8501 23.8565 79.407 23.8565C78.9339 23.8565 78.5185 23.9716 78.1605 24.2017C77.8026 24.4276 77.5234 24.7259 77.3232 25.0966C77.1271 25.4631 77.027 25.8658 77.0227 26.3047V27.6662C77.0227 28.2372 77.1271 28.7273 77.3359 29.1364C77.5447 29.5412 77.8366 29.8523 78.2116 30.0696C78.5866 30.2827 79.0256 30.3892 79.5284 30.3892C79.8651 30.3892 80.1697 30.3423 80.4425 30.2486C80.7152 30.1506 80.9517 30.0078 81.152 29.8203C81.3523 29.6328 81.5036 29.4006 81.6058 29.1236L83.7663 29.3665C83.63 29.9375 83.37 30.4361 82.9865 30.8622C82.6072 31.2841 82.1214 31.6122 81.5291 31.8466C80.9368 32.0767 80.2592 32.1918 79.4964 32.1918ZM90.1025 32.1918C89.1223 32.1918 88.2807 31.9766 87.5776 31.5462C86.8787 31.1158 86.3397 30.5213 85.9604 29.7628C85.5854 29 85.3979 28.1222 85.3979 27.1293C85.3979 26.1321 85.5897 25.2521 85.9732 24.4893C86.3567 23.7223 86.8979 23.1257 87.5968 22.6996C88.2999 22.2692 89.1309 22.054 90.0897 22.054C90.8865 22.054 91.5918 22.201 92.2054 22.495C92.8233 22.7848 93.3155 23.196 93.682 23.7287C94.0485 24.2571 94.2573 24.875 94.3084 25.5824H92.0968C92.0073 25.1094 91.7942 24.7152 91.4576 24.3999C91.1252 24.0803 90.6799 23.9205 90.1216 23.9205C89.6486 23.9205 89.2331 24.0483 88.8752 24.304C88.5172 24.5554 88.2381 24.9176 88.0378 25.3906C87.8418 25.8636 87.7438 26.4304 87.7438 27.0909C87.7438 27.7599 87.8418 28.3352 88.0378 28.8168C88.2338 29.294 88.5087 29.6626 88.8624 29.9226C89.2203 30.1783 89.6401 30.3061 90.1216 30.3061C90.4625 30.3061 90.7672 30.2422 91.0357 30.1143C91.3084 29.9822 91.5364 29.7926 91.7196 29.5455C91.9029 29.2983 92.0286 28.9979 92.0968 28.6442H94.3084C94.253 29.3388 94.0485 29.9545 93.6948 30.4915C93.3411 31.0241 92.8596 31.4418 92.2502 31.7443C91.6408 32.0426 90.9249 32.1918 90.1025 32.1918ZM101.111 22.1818V23.9716H95.467V22.1818H101.111ZM96.8604 19.8295H99.1744V29.0469C99.1744 29.358 99.2212 29.5966 99.315 29.7628C99.413 29.9247 99.5408 30.0355 99.6985 30.0952C99.8562 30.1548 100.031 30.1847 100.223 30.1847C100.368 30.1847 100.5 30.174 100.619 30.1527C100.743 30.1314 100.836 30.1122 100.9 30.0952L101.29 31.9041C101.167 31.9467 100.99 31.9936 100.76 32.0447C100.534 32.0959 100.257 32.1257 99.9286 32.1342C99.3491 32.1513 98.8271 32.0639 98.3626 31.8722C97.8981 31.6761 97.5295 31.3736 97.2567 30.9645C96.9883 30.5554 96.8562 30.044 96.8604 29.4304V19.8295Z" fill="white"/>
<path d="M44.2028 9.25391C44.1729 8.97479 44.0472 8.75746 43.8256 8.60192C43.6062 8.44638 43.3207 8.36861 42.9691 8.36861C42.7219 8.36861 42.5099 8.40589 42.3331 8.48047C42.1563 8.55504 42.021 8.65625 41.9272 8.78409C41.8335 8.91193 41.7855 9.05788 41.7834 9.22195C41.7834 9.35831 41.8143 9.47656 41.8761 9.5767C41.94 9.67685 42.0263 9.76207 42.1349 9.83239C42.2436 9.90057 42.364 9.9581 42.4961 10.005C42.6282 10.0518 42.7614 10.0913 42.8956 10.1232L43.5092 10.2766C43.7564 10.3342 43.994 10.4119 44.2219 10.5099C44.4521 10.608 44.6577 10.7315 44.8388 10.8807C45.022 11.0298 45.1669 11.2099 45.2734 11.4208C45.38 11.6317 45.4332 11.8789 45.4332 12.1623C45.4332 12.5458 45.3352 12.8835 45.1392 13.1754C44.9432 13.4652 44.6598 13.6921 44.2891 13.8562C43.9205 14.0181 43.4741 14.0991 42.9499 14.0991C42.4407 14.0991 41.9986 14.0202 41.6236 13.8626C41.2507 13.7049 40.9588 13.4748 40.7479 13.1722C40.5391 12.8697 40.4261 12.5011 40.4091 12.0664H41.5756C41.5927 12.2944 41.663 12.484 41.7866 12.6353C41.9102 12.7866 42.071 12.8995 42.2692 12.9741C42.4695 13.0487 42.6932 13.0859 42.9403 13.0859C43.1982 13.0859 43.424 13.0476 43.6179 12.9709C43.8139 12.892 43.9673 12.7834 44.0781 12.6449C44.1889 12.5043 44.2454 12.3402 44.2475 12.1527C44.2454 11.9822 44.1953 11.8416 44.0973 11.7308C43.9993 11.6179 43.8619 11.5241 43.685 11.4496C43.5103 11.3729 43.3058 11.3047 43.0714 11.245L42.3267 11.0533C41.7876 10.9148 41.3615 10.7049 41.0483 10.4237C40.7372 10.1403 40.5817 9.7642 40.5817 9.29545C40.5817 8.9098 40.6861 8.57209 40.8949 8.28232C41.1058 7.99254 41.3924 7.76776 41.7546 7.60795C42.1168 7.44602 42.527 7.36506 42.9851 7.36506C43.4496 7.36506 43.8565 7.44602 44.206 7.60795C44.5575 7.76776 44.8335 7.99041 45.0337 8.27592C45.234 8.5593 45.3374 8.8853 45.3438 9.25391H44.2028ZM48.5805 14.0959C48.1011 14.0959 47.6856 13.9904 47.3341 13.7795C46.9825 13.5685 46.7098 13.2734 46.5159 12.8942C46.3241 12.5149 46.2282 12.0717 46.2282 11.5646C46.2282 11.0575 46.3241 10.6133 46.5159 10.2319C46.7098 9.8505 46.9825 9.55433 47.3341 9.34339C47.6856 9.13246 48.1011 9.02699 48.5805 9.02699C49.0599 9.02699 49.4754 9.13246 49.827 9.34339C50.1785 9.55433 50.4502 9.8505 50.642 10.2319C50.8358 10.6133 50.9328 11.0575 50.9328 11.5646C50.9328 12.0717 50.8358 12.5149 50.642 12.8942C50.4502 13.2734 50.1785 13.5685 49.827 13.7795C49.4754 13.9904 49.0599 14.0959 48.5805 14.0959ZM48.5869 13.169C48.8469 13.169 49.0642 13.0977 49.2389 12.9549C49.4136 12.81 49.5436 12.6161 49.6288 12.3732C49.7162 12.1303 49.7599 11.8597 49.7599 11.5614C49.7599 11.261 49.7162 10.9893 49.6288 10.7464C49.5436 10.5014 49.4136 10.3065 49.2389 10.1616C49.0642 10.0167 48.8469 9.94425 48.5869 9.94425C48.3206 9.94425 48.099 10.0167 47.9221 10.1616C47.7474 10.3065 47.6164 10.5014 47.529 10.7464C47.4438 10.9893 47.4012 11.261 47.4012 11.5614C47.4012 11.8597 47.4438 12.1303 47.529 12.3732C47.6164 12.6161 47.7474 12.81 47.9221 12.9549C48.099 13.0977 48.3206 13.169 48.5869 13.169ZM55.0437 11.9354V9.09091H56.2006V14H55.0788V13.1275H55.0277C54.9169 13.4023 54.7347 13.6271 54.4812 13.8018C54.2298 13.9766 53.9197 14.0639 53.5511 14.0639C53.2294 14.0639 52.945 13.9925 52.6978 13.8498C52.4528 13.7049 52.261 13.495 52.1225 13.2202C51.984 12.9432 51.9148 12.6087 51.9148 12.2166V9.09091H53.0717V12.0376C53.0717 12.3487 53.157 12.5959 53.3274 12.7791C53.4979 12.9624 53.7216 13.054 53.9986 13.054C54.169 13.054 54.3342 13.0124 54.494 12.9293C54.6538 12.8462 54.7848 12.7227 54.8871 12.5586C54.9915 12.3924 55.0437 12.1847 55.0437 11.9354ZM57.3904 14V9.09091H58.5122V9.90909H58.5633C58.6528 9.62571 58.8062 9.40732 59.0235 9.25391C59.243 9.09837 59.4933 9.0206 59.7746 9.0206C59.8385 9.0206 59.9099 9.02379 59.9887 9.03018C60.0697 9.03445 60.1368 9.0419 60.1901 9.05256V10.1168C60.1411 10.0998 60.0633 10.0849 59.9568 10.0721C59.8524 10.0572 59.7512 10.0497 59.6531 10.0497C59.4422 10.0497 59.2526 10.0955 59.0843 10.1871C58.9181 10.2766 58.787 10.4013 58.6911 10.5611C58.5953 10.7209 58.5473 10.9052 58.5473 11.114V14H57.3904ZM62.8979 14.0959C62.4078 14.0959 61.987 13.9883 61.6355 13.7731C61.286 13.5579 61.0165 13.2607 60.8269 12.8814C60.6394 12.5 60.5456 12.0611 60.5456 11.5646C60.5456 11.0661 60.6415 10.6261 60.8333 10.2447C61.025 9.86115 61.2956 9.56285 61.6451 9.34979C61.9966 9.13459 62.4121 9.02699 62.8915 9.02699C63.29 9.02699 63.6426 9.1005 63.9494 9.24751C64.2583 9.3924 64.5044 9.59801 64.6877 9.86435C64.8709 10.1286 64.9753 10.4375 65.0009 10.7912H63.8951C63.8503 10.5547 63.7438 10.3576 63.5755 10.1999C63.4093 10.0401 63.1866 9.96023 62.9075 9.96023C62.671 9.96023 62.4632 10.0241 62.2843 10.152C62.1053 10.2777 61.9657 10.4588 61.8656 10.6953C61.7676 10.9318 61.7186 11.2152 61.7186 11.5455C61.7186 11.88 61.7676 12.1676 61.8656 12.4084C61.9636 12.647 62.101 12.8313 62.2779 12.9613C62.4569 13.0891 62.6667 13.1531 62.9075 13.1531C63.0779 13.1531 63.2303 13.1211 63.3645 13.0572C63.5009 12.9911 63.6149 12.8963 63.7065 12.7727C63.7981 12.6491 63.861 12.4989 63.8951 12.3221H65.0009C64.9732 12.6694 64.8709 12.9773 64.6941 13.2457C64.5172 13.5121 64.2765 13.7209 63.9718 13.8722C63.6671 14.0213 63.3091 14.0959 62.8979 14.0959ZM68.1242 14.0959C67.632 14.0959 67.2069 13.9936 66.849 13.7891C66.4932 13.5824 66.2194 13.2905 66.0276 12.9134C65.8358 12.5341 65.74 12.0877 65.74 11.5742C65.74 11.0692 65.8358 10.6261 66.0276 10.2447C66.2215 9.86115 66.4921 9.56285 66.8394 9.34979C67.1867 9.13459 67.5947 9.02699 68.0635 9.02699C68.366 9.02699 68.6515 9.07599 68.92 9.17401C69.1906 9.26989 69.4292 9.41903 69.6359 9.62145C69.8447 9.82386 70.0088 10.0817 70.1281 10.3949C70.2474 10.706 70.3071 11.0767 70.3071 11.5071V11.8619H66.2833V11.082H69.1981C69.1959 10.8604 69.148 10.6634 69.0542 10.4908C68.9605 10.3161 68.8295 10.1786 68.6611 10.0785C68.4949 9.97834 68.301 9.92827 68.0795 9.92827C67.843 9.92827 67.6352 9.9858 67.4562 10.1009C67.2773 10.2138 67.1377 10.3629 67.0376 10.5483C66.9395 10.7315 66.8895 10.9329 66.8873 11.1523V11.8331C66.8873 12.1186 66.9395 12.3636 67.0439 12.5682C67.1483 12.7706 67.2943 12.9261 67.4818 13.0348C67.6693 13.1413 67.8888 13.1946 68.1402 13.1946C68.3085 13.1946 68.4608 13.1712 68.5972 13.1243C68.7336 13.0753 68.8518 13.0039 68.952 12.9102C69.0521 12.8164 69.1278 12.7003 69.1789 12.5618L70.2591 12.6832C70.191 12.9687 70.061 13.218 69.8692 13.4311C69.6796 13.642 69.4367 13.8061 69.1405 13.9233C68.8444 14.0384 68.5056 14.0959 68.1242 14.0959ZM76.9396 9.663H75.7443C75.7102 9.46697 75.6474 9.29332 75.5558 9.14205C75.4641 8.98864 75.3501 8.85866 75.2138 8.75213C75.0774 8.6456 74.9219 8.5657 74.7472 8.51243C74.5746 8.45703 74.3881 8.42933 74.1879 8.42933C73.832 8.42933 73.5167 8.51882 73.2418 8.6978C72.967 8.87464 72.7518 9.13459 72.5962 9.47763C72.4407 9.81854 72.3629 10.2351 72.3629 10.7273C72.3629 11.228 72.4407 11.6499 72.5962 11.9929C72.7539 12.3338 72.9691 12.5916 73.2418 12.7663C73.5167 12.9389 73.831 13.0252 74.1847 13.0252C74.3807 13.0252 74.5639 12.9996 74.7344 12.9485C74.907 12.8952 75.0614 12.8175 75.1978 12.7152C75.3363 12.6129 75.4524 12.4872 75.5462 12.3381C75.642 12.1889 75.7081 12.0185 75.7443 11.8267L76.9396 11.8331C76.8949 12.1442 76.7979 12.4361 76.6488 12.7088C76.5018 12.9815 76.3089 13.2223 76.0703 13.4311C75.8317 13.6378 75.5526 13.7997 75.233 13.9169C74.9134 14.032 74.5586 14.0895 74.1687 14.0895C73.5934 14.0895 73.0799 13.9563 72.6282 13.69C72.1765 13.4237 71.8207 13.0391 71.5607 12.5362C71.3008 12.0334 71.1708 11.4304 71.1708 10.7273C71.1708 10.022 71.3018 9.41903 71.5639 8.91832C71.826 8.41548 72.1829 8.03089 72.6346 7.76456C73.0863 7.49822 73.5977 7.36506 74.1687 7.36506C74.533 7.36506 74.8718 7.41619 75.185 7.51847C75.4982 7.62074 75.7773 7.77095 76.0224 7.96911C76.2674 8.16513 76.4688 8.40589 76.6264 8.69141C76.7862 8.97479 76.8906 9.29865 76.9396 9.663ZM80.1157 14.0959C79.6363 14.0959 79.2208 13.9904 78.8692 13.7795C78.5177 13.5685 78.2449 13.2734 78.051 12.8942C77.8593 12.5149 77.7634 12.0717 77.7634 11.5646C77.7634 11.0575 77.8593 10.6133 78.051 10.2319C78.2449 9.8505 78.5177 9.55433 78.8692 9.34339C79.2208 9.13246 79.6363 9.02699 80.1157 9.02699C80.5951 9.02699 81.0106 9.13246 81.3621 9.34339C81.7137 9.55433 81.9854 9.8505 82.1771 10.2319C82.371 10.6133 82.468 11.0575 82.468 11.5646C82.468 12.0717 82.371 12.5149 82.1771 12.8942C81.9854 13.2734 81.7137 13.5685 81.3621 13.7795C81.0106 13.9904 80.5951 14.0959 80.1157 14.0959ZM80.1221 13.169C80.382 13.169 80.5993 13.0977 80.7741 12.9549C80.9488 12.81 81.0787 12.6161 81.164 12.3732C81.2513 12.1303 81.295 11.8597 81.295 11.5614C81.295 11.261 81.2513 10.9893 81.164 10.7464C81.0787 10.5014 80.9488 10.3065 80.7741 10.1616C80.5993 10.0167 80.382 9.94425 80.1221 9.94425C79.8557 9.94425 79.6341 10.0167 79.4573 10.1616C79.2826 10.3065 79.1515 10.5014 79.0642 10.7464C78.979 10.9893 78.9363 11.261 78.9363 11.5614C78.9363 11.8597 78.979 12.1303 79.0642 12.3732C79.1515 12.6161 79.2826 12.81 79.4573 12.9549C79.6341 13.0977 79.8557 13.169 80.1221 13.169ZM85.2717 14.0863C84.886 14.0863 84.5408 13.9872 84.2362 13.7891C83.9315 13.5909 83.6907 13.3033 83.5138 12.9261C83.337 12.549 83.2486 12.0909 83.2486 11.5518C83.2486 11.0064 83.3381 10.5462 83.517 10.1712C83.6982 9.79403 83.9421 9.50959 84.2489 9.31783C84.5558 9.12393 84.8977 9.02699 85.2749 9.02699C85.5625 9.02699 85.799 9.07599 85.9844 9.17401C86.1697 9.26989 86.3168 9.38601 86.4254 9.52237C86.5341 9.6566 86.6183 9.78338 86.6779 9.9027H86.7259V7.45455H87.886V14H86.7482V13.2266H86.6779C86.6183 13.3459 86.532 13.4727 86.419 13.6069C86.3061 13.739 86.157 13.8519 85.9716 13.9457C85.7862 14.0394 85.5529 14.0863 85.2717 14.0863ZM85.5945 13.1371C85.8395 13.1371 86.0483 13.071 86.2209 12.9389C86.3935 12.8047 86.5245 12.6183 86.614 12.3796C86.7035 12.141 86.7482 11.8629 86.7482 11.5455C86.7482 11.228 86.7035 10.9521 86.614 10.7177C86.5266 10.4833 86.3967 10.3011 86.2241 10.1712C86.0536 10.0412 85.8438 9.97621 85.5945 9.97621C85.3366 9.97621 85.1214 10.0433 84.9489 10.1776C84.7763 10.3118 84.6463 10.4972 84.5589 10.7337C84.4716 10.9702 84.4279 11.2408 84.4279 11.5455C84.4279 11.8523 84.4716 12.1261 84.5589 12.3668C84.6484 12.6055 84.7795 12.794 84.9521 12.9325C85.1268 13.0689 85.3409 13.1371 85.5945 13.1371ZM91.2922 14.0959C90.8 14.0959 90.3749 13.9936 90.017 13.7891C89.6611 13.5824 89.3873 13.2905 89.1956 12.9134C89.0038 12.5341 88.9079 12.0877 88.9079 11.5742C88.9079 11.0692 89.0038 10.6261 89.1956 10.2447C89.3895 9.86115 89.6601 9.56285 90.0074 9.34979C90.3547 9.13459 90.7627 9.02699 91.2314 9.02699C91.534 9.02699 91.8195 9.07599 92.088 9.17401C92.3586 9.26989 92.5972 9.41903 92.8039 9.62145C93.0127 9.82386 93.1768 10.0817 93.2961 10.3949C93.4154 10.706 93.4751 11.0767 93.4751 11.5071V11.8619H89.4513V11.082H92.366C92.3639 10.8604 92.316 10.6634 92.2222 10.4908C92.1285 10.3161 91.9974 10.1786 91.8291 10.0785C91.6629 9.97834 91.469 9.92827 91.2474 9.92827C91.0109 9.92827 90.8032 9.9858 90.6242 10.1009C90.4452 10.2138 90.3057 10.3629 90.2055 10.5483C90.1075 10.7315 90.0574 10.9329 90.0553 11.1523V11.8331C90.0553 12.1186 90.1075 12.3636 90.2119 12.5682C90.3163 12.7706 90.4623 12.9261 90.6498 13.0348C90.8373 13.1413 91.0567 13.1946 91.3082 13.1946C91.4765 13.1946 91.6288 13.1712 91.7652 13.1243C91.9015 13.0753 92.0198 13.0039 92.1199 12.9102C92.2201 12.8164 92.2957 12.7003 92.3469 12.5618L93.4271 12.6832C93.3589 12.9687 93.229 13.218 93.0372 13.4311C92.8476 13.642 92.6047 13.8061 92.3085 13.9233C92.0123 14.0384 91.6736 14.0959 91.2922 14.0959Z" fill="white"/>
</g>
<defs>
<clipPath id="clip0_86_12145">
<rect width="126" height="42" fill="white"/>
</clipPath>
<clipPath id="clip1_86_12145">
<rect x="9" y="9" width="23" height="23" rx="11.5" fill="white"/>
</clipPath>
</defs>
</svg>
